<svg xmlns="http://www.w3.org/2000/svg" viewBox="0 0 76.5 76.5" enable-background="new 0 0 76.5 76.5"><g fill="#353635"><path d="M29.1 45.5c-1.9 2.6-.8 5.7.3 6.7 1 .9 2.7 1.9 4.9 1.9.9 0 3.8.1 7.1-1.5L31.6 43c-1.2.8-1.9 1.6-2.5 2.5zM35.1 32.4c3.3-1.5 4.9-3.4 4.9-5.8v-.1c0-1.2-.3-2.1-1-2.8-.7-.7-1.5-1-2.6-1s-2 .4-2.7 1.1c-.7.8-1 1.8-1 3v.1c0 .9.2 1.8.6 2.6.4 1 1 1.9 1.8 2.9zM38.3 0C17.1 0 0 17.1 0 38.3c0 21.1 17.1 38.3 38.3 38.3 21.1 0 38.3-17.1 38.3-38.3C76.5 17.1 59.4 0 38.3 0zM63 40h-2.1l-.1-.1-.3-.4c-.6-.8-1.5-.9-2-.2l-.4.5h-.3c-.6 3.8-3.7 8.9-4.7 10.2l6.3 6.2-8.7 6.3-4.8-4.9c-2 1.5-4.1 2.7-6.4 3.5-2.3.8-4.8 1.2-7.5 1.2-2.4 0-4.6-.3-6.6-.9-2-.6-3.8-1.5-5.3-2.7-1.5-1.2-2.6-2.6-3.5-4.3-.8-1.7-1.3-3.6-1.3-5.7v-.1c0-5.9 3.2-10.3 9.5-13.1-1.1-1.6-1.8-3.1-2.3-4.5-.5-1.5-.7-2.9-.7-4.5v-.1c0-1.7.3-3.3 1-4.9.7-1.5 1.6-2.9 2.9-4.1 1.3-1.2 2.8-2.1 4.6-2.8 1.8-.7 3.9-1 6.1-1 2.1 0 4.1.3 5.8.9 1.7.6 3.2 1.5 4.4 2.6 1.2 1.1 2.1 2.3 2.8 3.8.6 1.5 1 3.1 1 4.8v.1c0 2.9-.8 5.3-2.5 7.3S44 36.7 41.3 38l8.8 8.4c1.5-1.8 2.5-3 3.2-4.7.3-.8.6-1.6.6-2.7v-.8h-.3v-.6c-2-.1-4-.1-6.4 1.8l-.4-.5c1-1.7 3.6-4 6.8-4.3h4.7l.4.5.3.3c.1 0 .1.1.2.1.5.2 1.2 0 1.6-.6l.4-.5h2.1l.4.5v4.7l-.7.4z"/></g></svg>